<svg xmlns="http://www.w3.org/2000/svg" viewBox="0 0 200 133"><defs><style>.cls-1{fill:#38b6ab;}.cls-2{font-size:16px;font-family:Arial-BoldMT, Arial;font-weight:700;}.cls-2,.cls-4{fill:#fff;}.cls-3{letter-spacing:-0.07em;}</style></defs><g id="Layer_2" data-name="Layer 2"><rect class="cls-1" width="200" height="133" rx="10"/></g><g id="Layer_1" data-name="Layer 1"><text class="cls-2" transform="translate(28.58 122.98)"><tspan class="cls-3">V</tspan><tspan x="9.48" y="0">olcano &amp; tsunami</tspan></text><path class="cls-4" d="M108.45,56.33l12.93-8.95a.48.48,0,0,1,.24-.06.46.46,0,0,1,.23.06h0l12.93,8.95a.35.35,0,0,1,.17.27h0V67.35c.35,0,.73,0,1.12,0h.26a14.37,14.37,0,0,1,7.52,2.11l-.07,0A7.65,7.65,0,0,0,148,70.65h.26a10.41,10.41,0,0,0,10-10v0c0-.09,0-.2,0-.31a9.53,9.53,0,0,0-9.16-9.52h0a8.57,8.57,0,0,0-4.24,1.12l0,0a3.2,3.2,0,0,1-1.62.42,3.33,3.33,0,0,1-1.63-6.24h0a15.14,15.14,0,0,1,7.46-1.94h0A16.19,16.19,0,0,1,165,60.34v.32h0a17.11,17.11,0,0,1-16.61,16.66H148a14.42,14.42,0,0,1-7.51-2.1l.06,0A7.68,7.68,0,0,0,136.34,74h-.52a7.75,7.75,0,0,0-4.28,1.28l0,0a14,14,0,0,1-6.59,2h0c-.35,0-.72,0-1.1,0h-.26a14.43,14.43,0,0,1-7.52-2.1l.06,0a7.92,7.92,0,0,0-2.79-1.13h-.06l-.52-.08h0c-.26,0-.51,0-.79,0a1.18,1.18,0,0,0-.27,0h-.17a15.8,15.8,0,0,0-3.33.35l.1,0V56.6a.36.36,0,0,1,.17-.27Z"/><path class="cls-4" d="M111.62,93.86h.28A14.24,14.24,0,0,1,119.39,96l-.06,0a8.6,8.6,0,0,0,4.51,1.26,8.71,8.71,0,0,0,4.56-1.28l0,0a14.12,14.12,0,0,1,7.43-2.08h.57A14.23,14.23,0,0,1,143.84,96l-.06,0A7.74,7.74,0,0,0,148,97.2h.5a7.76,7.76,0,0,0,4.29-1.28l0,0a14.12,14.12,0,0,1,7.43-2.08h.56A14.24,14.24,0,0,1,168.28,96l-.06,0a7.76,7.76,0,0,0,4.26,1.26h.5a7.79,7.79,0,0,0,4.29-1.28l0,0a14.18,14.18,0,0,1,7.42-2.08h.28a3.33,3.33,0,1,1,0,6.66h-.24a7.82,7.82,0,0,0-4.3,1.28l0,0a14.06,14.06,0,0,1-7.42,2.08h-.56a14.24,14.24,0,0,1-7.49-2.11l.06,0a7.74,7.74,0,0,0-4.26-1.26h-.5a7.79,7.79,0,0,0-4.29,1.28l0,0a14.12,14.12,0,0,1-7.43,2.08H148a14.25,14.25,0,0,1-7.49-2.12l.06,0a8.6,8.6,0,0,0-4.51-1.26,8.74,8.74,0,0,0-4.56,1.28l0,0a15.4,15.4,0,0,1-15.49,0l.08,0a7.82,7.82,0,0,0-4.27-1.26h-.25a3.34,3.34,0,1,1,0-6.67Z"/><path class="cls-4" d="M111.62,80.53h.28a14.24,14.24,0,0,1,7.49,2.11l-.06,0a8.51,8.51,0,0,0,4.51,1.26,8.62,8.62,0,0,0,4.56-1.28l0,0a14.21,14.21,0,0,1,7.43-2.07h.57a14.23,14.23,0,0,1,7.48,2.11l-.06,0A7.66,7.66,0,0,0,148,83.87h.5a7.76,7.76,0,0,0,4.29-1.28h0a14.21,14.21,0,0,1,7.43-2.07h.56a14.24,14.24,0,0,1,7.49,2.11l-.06,0a7.76,7.76,0,0,0,4.26,1.26h.5a7.79,7.79,0,0,0,4.29-1.28l0,0a14.09,14.09,0,0,1,7.42-2.08h.28a3.34,3.34,0,1,1,0,6.67h-.24a7.82,7.82,0,0,0-4.3,1.28l0,0A14.15,14.15,0,0,1,173,90.54h-.56A14.25,14.25,0,0,1,165,88.42l.06,0a7.74,7.74,0,0,0-4.26-1.27h-.5A7.79,7.79,0,0,0,156,88.48l0,0a14.21,14.21,0,0,1-7.43,2.07H148a14.24,14.24,0,0,1-7.49-2.11l.06,0a8.6,8.6,0,0,0-4.51-1.26,8.74,8.74,0,0,0-4.56,1.28l0,0a15.4,15.4,0,0,1-15.49,0l.08,0a7.83,7.83,0,0,0-4.27-1.27h-.25a3.34,3.34,0,1,1,0-6.67Z"/><path class="cls-4" d="M181.45,75.65a3.35,3.35,0,0,1-3.34-3.34,3.31,3.31,0,0,1,.39-1.56v0A27.09,27.09,0,0,0,181.61,58a27.52,27.52,0,0,0-27.49-27.51h0a27.58,27.58,0,0,0-18.6,7.59h0a3.36,3.36,0,0,1-2.26.87A3.33,3.33,0,0,1,130,35.65,3.28,3.28,0,0,1,131,33.2h0a34.13,34.13,0,0,1,23.06-9.32h0a34.19,34.19,0,0,1,30.2,50.18l.09-.19a3.35,3.35,0,0,1-3,1.79h0Z"/><path class="cls-4" d="M91.48,102.46,60.53,73.18a3.24,3.24,0,0,0-4.14-.42h0a8.14,8.14,0,0,1-9.39,0l0,0a3.21,3.21,0,0,0-1.81-.56,3.25,3.25,0,0,0-2.32,1h0L12,102.46a.83.83,0,0,0,.58,1.41H90.9a.83.83,0,0,0,.58-1.41Z"/><path class="cls-4" d="M53.39,64.7a2.5,2.5,0,0,0,5,0h0V51.28c0-.15,0-.33,0-.51a10.24,10.24,0,0,1,9.71-10.23h.41a7.69,7.69,0,0,1,7.68,7.29v.3a5.65,5.65,0,0,1-5.36,5.65h-.24a4,4,0,0,1-4-3.82h0a2.5,2.5,0,0,0-5,.13v.13h0a9.05,9.05,0,0,0,9,8.58h.44A10.66,10.66,0,0,0,81.18,48.12c0-.18,0-.37,0-.55v0A12.7,12.7,0,0,0,68.49,35.53l-.67,0h0A15.25,15.25,0,0,0,53.37,50.77c0,.22,0,.45,0,.67V64.7Z"/><path class="cls-4" d="M35.32,43.66h.1a2.5,2.5,0,0,0,.15-5h0a4.13,4.13,0,0,1-3.89-4.11,1.55,1.55,0,0,1,0-.22h0a5.75,5.75,0,0,1,5.74-5.49h.27a7.87,7.87,0,0,1,7.39,7.85c0,.17,0,.35,0,.52V64.7a2.48,2.48,0,0,0,5,0h0V37.34c0-.2,0-.43,0-.66A12.82,12.82,0,0,0,38,23.88h0l-.51,0A10.73,10.73,0,0,0,26.73,34.07v0c0,.14,0,.3,0,.47a9.11,9.11,0,0,0,8.57,9.09Z"/></g></svg>